<svg width="100%" height="100%" id="svg" viewBox="0 0 1440 700" xmlns="http://www.w3.org/2000/svg" class="transition duration-300 ease-in-out delay-150"><path d="M 0,700 C 0,700 0,233 0,233 C 117.27272727272728,252.68421052631578 234.54545454545456,272.36842105263156 326,266 C 417.45454545454544,259.63157894736844 483.090909090909,227.21052631578945 565,218 C 646.909090909091,208.78947368421055 745.0909090909092,222.78947368421052 833,213 C 920.9090909090908,203.21052631578948 998.5454545454545,169.63157894736844 1098,169 C 1197.4545454545455,168.36842105263156 1318.7272727272727,200.68421052631578 1440,233 C 1440,233 1440,700 1440,700 Z" stroke="none" stroke-width="0" fill="#9900ef" fill-opacity="0.53" class="transition-all duration-300 ease-in-out delay-150 path-0" transform="rotate(-180 720 350)"></path><path d="M 0,700 C 0,700 0,466 0,466 C 83.13875598086128,481.6937799043062 166.27751196172255,497.3875598086124 260,482 C 353.72248803827745,466.6124401913876 458.02870813397124,420.1435406698564 550,417 C 641.9712918660288,413.8564593301436 721.6076555023924,454.0382775119618 819,463 C 916.3923444976076,471.9617224880382 1031.5406698564593,449.7033492822966 1138,445 C 1244.4593301435407,440.2966507177034 1342.2296650717703,453.1483253588517 1440,466 C 1440,466 1440,700 1440,700 Z" stroke="none" stroke-width="0" fill="#9900ef" fill-opacity="1" class="transition-all duration-300 ease-in-out delay-150 path-1" transform="rotate(-180 720 350)"></path></svg>